<svg xmlns="http://www.w3.org/2000/svg" version="1.1" xmlns:xlink="http://www.w3.org/1999/xlink" xmlns:svgjs="http://svgjs.dev/svgjs" width="1500" height="1500" viewBox="0 0 1500 1500"><rect width="1500" height="1500" fill="#ffffff"></rect><g transform="matrix(0.6666666666666666,0,0,0.6666666666666666,249.39393939393938,564.6411342183209)"><svg viewBox="0 0 396 147" data-background-color="#ffffff" preserveAspectRatio="xMidYMid meet" height="556" width="1500" xmlns="http://www.w3.org/2000/svg" xmlns:xlink="http://www.w3.org/1999/xlink"><g id="tight-bounds" transform="matrix(1,0,0,1,0.2400000000000091,0.010125728165931491)"><svg viewBox="0 0 395.52 146.97974854366814" height="146.97974854366814" width="395.52"><g><svg viewBox="0 0 395.52 146.97974854366814" height="146.97974854366814" width="395.52"><g transform="matrix(1,0,0,1,0,74.8472633776875)"><svg viewBox="0 0 395.52 72.13248516598064" height="72.13248516598064" width="395.52"><g id="textblocktransform"><svg viewBox="0 0 395.52 72.13248516598064" height="72.13248516598064" width="395.52" id="textblock"><g><svg viewBox="0 0 395.52 72.13248516598064" height="72.13248516598064" width="395.52"><g transform="matrix(1,0,0,1,0,0)"><svg width="395.52" viewBox="1.98 -35.99 238.264464280584 43.46" height="72.13248516598064" data-palette-color="#6c48c5"><path d="M35.91-26.44L35.91-26.44 31.74-24.68Q31.25-26.27 30.43-27.59 29.61-28.91 28.48-29.85 27.34-30.79 25.9-31.31 24.46-31.84 22.75-31.84L22.75-31.84Q20.92-31.84 19.4-31.24 17.87-30.64 16.66-29.59 15.45-28.54 14.55-27.15 13.65-25.76 13.04-24.18 12.43-22.61 12.13-20.92 11.84-19.24 11.84-17.63L11.84-17.63Q11.84-15.06 12.44-12.52 13.04-9.99 14.34-7.96 15.65-5.93 17.72-4.68 19.8-3.42 22.75-3.42L22.75-3.42Q24.32-3.42 25.71-3.94 27.1-4.47 28.23-5.38 29.37-6.3 30.22-7.54 31.08-8.79 31.59-10.23L31.59-10.23 35.82-8.54Q34.89-6.23 33.28-4.48 31.67-2.73 29.6-1.59 27.54-0.44 25.18 0.13 22.83 0.71 20.43 0.71L20.43 0.71Q17.85 0.71 15.47 0.07 13.09-0.56 11.04-1.73 8.98-2.91 7.31-4.57 5.64-6.23 4.46-8.25 3.27-10.28 2.62-12.66 1.98-15.04 1.98-17.63L1.98-17.63Q1.98-20.21 2.62-22.6 3.27-24.98 4.46-27.01 5.64-29.05 7.31-30.71 8.98-32.37 11.04-33.54 13.09-34.72 15.47-35.35 17.85-35.99 20.43-35.99L20.43-35.99Q22.92-35.99 25.31-35.4 27.69-34.81 29.74-33.63 31.79-32.45 33.39-30.65 34.99-28.86 35.91-26.44ZM51.27-15.33L51.27 0 41.57 0 41.57-35.16 51.27-35.16 51.27-19.8 64.11-19.8 64.11-35.16 73.8-35.16 73.8 0 64.11 0 64.11-15.33 51.27-15.33ZM91.45-35.16L91.45 0 81.76 0 81.76-35.16 91.45-35.16ZM133.49-17.63L133.49-17.63Q133.49-15.06 132.81-12.76 132.12-10.45 130.89-8.5 129.66-6.54 127.95-4.97 126.24-3.39 124.17-2.29 122.11-1.2 119.76-0.6 117.4 0 114.91 0L114.91 0 99.41 0 99.41-35.16 114.91-35.16Q117.4-35.16 119.74-34.57 122.09-33.98 124.15-32.9 126.21-31.81 127.93-30.25 129.66-28.69 130.89-26.75 132.12-24.8 132.81-22.5 133.49-20.19 133.49-17.63ZM123.65-17.63L123.65-17.63Q123.65-20.48 122.95-23.06 122.26-25.63 120.79-27.59 119.33-29.54 117.07-30.69 114.81-31.84 111.66-31.84L111.66-31.84 109.1-31.84 109.1-3.42 111.66-3.42Q114.76-3.42 117.02-4.58 119.28-5.74 120.76-7.7 122.23-9.67 122.94-12.23 123.65-14.79 123.65-17.63ZM164.69-4.49L164.69 0 139.44 0 139.44-35.16 164.69-35.16 164.69-30.66 149.14-30.66 149.14-19.8 161.15-19.8 161.15-15.33 149.14-15.33 149.14-4.49 164.69-4.49ZM180.38-13.13L180.38 0 170.69 0 170.69-35.16 187.98-35.16Q190.42-35.16 192.69-34.58 194.96-34.01 196.7-32.78 198.45-31.54 199.49-29.59 200.52-27.64 200.52-24.85L200.52-24.85Q200.52-22.68 199.61-20.76 198.69-18.85 197.17-17.35 195.64-15.84 193.66-14.86 191.69-13.87 189.56-13.55L189.56-13.55Q190.51-11.94 191.55-10.5 192.59-9.06 193.65-7.8 194.71-6.54 195.76-5.48 196.81-4.42 197.77-3.54L197.77-3.54Q200.01-1.49 202.21 0L202.21 0 190.12 0Q188.66-1.39 187.34-3.34L187.34-3.34Q186.22-5 185.08-7.46 183.95-9.91 183.34-13.13L183.34-13.13 180.38-13.13ZM190.69-24.85L190.69-24.85Q190.69-28.39 188.96-30.05 187.24-31.71 183.8-31.71L183.8-31.71 180.38-31.71 180.38-16.46 183.8-16.46Q185.63-16.46 186.94-17.15 188.24-17.85 189.07-19.01 189.9-20.17 190.3-21.68 190.69-23.19 190.69-24.85ZM240.24-16.82L240.24-16.82 240.24-16.36Q240.19-14.31 239.82-12.11 239.44-9.91 238.75-7.71 238.07-5.52 237.12-3.37 236.17-1.22 234.98 0.74 233.8 2.71 232.43 4.43 231.06 6.15 229.55 7.47L229.55 7.47 225.91 5.37Q226.77 3.93 227.46 2.23 228.16 0.54 228.72-1.32 229.28-3.17 229.68-5.13 230.09-7.08 230.36-9.01 230.62-10.94 230.76-12.81 230.89-14.67 230.89-16.36L230.89-16.36Q230.89-17.68 230.88-19.35 230.87-21.02 230.69-22.75 230.5-24.49 230.09-26.14 229.67-27.78 228.85-29.08 228.04-30.37 226.76-31.15 225.47-31.93 223.57-31.93L223.57-31.93Q221.88-31.93 220.68-31.36 219.47-30.79 218.63-29.82 217.78-28.86 217.28-27.59 216.78-26.32 216.5-24.91 216.22-23.51 216.13-22.08 216.05-20.65 216.05-19.38L216.05-19.38 216.05-12.57 226.57-12.57 226.57-8.54 216.05-8.54 216.05 0 206.36 0 206.36-17.87Q206.36-21.7 207.58-25 208.8-28.3 211.03-30.73 213.27-33.15 216.4-34.53 219.54-35.91 223.4-35.91L223.4-35.91Q226.01-35.91 228.29-35.17 230.58-34.42 232.46-33.12 234.34-31.81 235.81-30.02 237.29-28.22 238.28-26.1 239.27-23.97 239.78-21.61 240.29-19.24 240.24-16.82Z" opacity="1" transform="matrix(1,0,0,1,0,0)" fill="#6c48c5" class="wordmark-text-0" data-fill-palette-color="primary" id="text-0"></path></svg></g></svg></g></svg></g></svg></g><g transform="matrix(1,0,0,1,168.85074259517825,0)"><svg viewBox="0 0 57.81851480964346 57.818514809643446" height="57.818514809643446" width="57.81851480964346"><g><svg></svg></g><g id="icon-0"><svg viewBox="0 0 57.81851480964346 57.818514809643446" height="57.818514809643446" width="57.81851480964346"><g><path transform="scale(0.57819,0.57819)" d="M30 100c-16.569 0-30-13.431-30-30v-40c0-16.569 13.431-30 30-30h40c16.569 0 30 13.431 30 30v40c0 16.569-13.431 30-30 30z" fill="#1230ae" fill-rule="nonzero" stroke="none" stroke-width="1" stroke-linecap="butt" stroke-linejoin="miter" stroke-miterlimit="10" stroke-dasharray="" stroke-dashoffset="0" font-family="none" font-weight="none" font-size="none" text-anchor="none" style="mix-blend-mode: normal" data-fill-palette-color="accent"></path></g><g transform="matrix(1,0,0,1,11.563702961928698,11.56370296192869)"><svg viewBox="0 0 34.691108885786065 34.691108885786065" height="34.691108885786065" width="34.691108885786065"><g><svg xmlns="http://www.w3.org/2000/svg" xmlns:xlink="http://www.w3.org/1999/xlink" version="1.1" x="0" y="0" viewBox="2.5 2.5 20 20" style="enable-background:new 0.5 0.5 24 24;" xml:space="preserve" height="34.691108885786065" width="34.691108885786065" class="icon-dxe-0" data-fill-palette-color="quaternary" id="dxe-0"><g fill="#ffffff" data-fill-palette-color="quaternary"><path d="M21.5 6.5H16.5V4.5C16.5 3.397 15.603 2.5 14.5 2.5H10.5C9.397 2.5 8.5 3.397 8.5 4.5V6.5H3.5A1 1 0 0 0 2.5 7.5V10C2.5 11.93 4.07 13.5 6 13.5H19C20.93 13.5 22.5 11.93 22.5 10V7.5A1 1 0 0 0 21.5 6.5M14.5 6.5H10.5V4.5H14.5z" fill="#ffffff" data-fill-palette-color="quaternary"></path><path d="M19 14.5H13.5V16.5A1 1 0 1 1 11.5 16.5V14.5H6C4.579 14.5 3.325 13.825 2.5 12.794V21.5A1 1 0 0 0 3.5 22.5H21.5A1 1 0 0 0 22.5 21.5V12.794C21.675 13.825 20.421 14.5 19 14.5" fill="#ffffff" data-fill-palette-color="quaternary"></path></g></svg></g></svg></g></svg></g></svg></g><g></g></svg></g><defs></defs></svg><rect width="395.52" height="146.97974854366814" fill="none" stroke="none" visibility="hidden"></rect></g></svg></g></svg>